<svg width="1662" height="317" viewBox="0 0 1662 317" fill="none" xmlns="http://www.w3.org/2000/svg">
<g style="mix-blend-mode:color-dodge" opacity="0.3">
<path d="M153 211.666H101.334V160H51.6664V211.666H0V261.334H51.6664V313H101.334V261.334H153V211.666Z" fill="#F1F2F3"/>
</g>
<g style="mix-blend-mode:color-dodge" opacity="0.3">
<path d="M238 134.69H210.309V107H183.69V134.69H156V161.31H183.69V189H210.309V161.31H238V134.69Z" fill="#F1F2F3"/>
</g>
<g style="mix-blend-mode:color-dodge" opacity="0.3">
<path d="M124 53.6905H96.3095V26H69.6905V53.6905H42V80.3095H69.6905V108H96.3095V80.3095H124V53.6905Z" fill="#F1F2F3"/>
</g>
<g style="mix-blend-mode:color-dodge" opacity="0.3">
<path d="M283 44.2091H266.791V28H251.209V44.2091H235V59.7909H251.209V76H266.791V59.7909H283V44.2091Z" fill="#F1F2F3"/>
</g>
<g style="mix-blend-mode:color-dodge" opacity="0.3">
<path d="M1498 215.666H1549.67V164H1599.33V215.666H1651V265.334H1599.33V317H1549.67V265.334H1498V215.666Z" fill="#F1F2F3"/>
</g>
<g style="mix-blend-mode:color-dodge" opacity="0.3">
<path d="M1580 116.69H1607.69V89H1634.31V116.69H1662V143.31H1634.31V171H1607.69V143.31H1580V116.69Z" fill="#F1F2F3"/>
</g>
<g style="mix-blend-mode:color-dodge" opacity="0.3">
<path d="M1446 86.6905H1473.69V59H1500.31V86.6905H1528V113.31H1500.31V141H1473.69V113.31H1446V86.6905Z" fill="#F1F2F3"/>
</g>
<g style="mix-blend-mode:color-dodge" opacity="0.3">
<path d="M1556 16.2091H1572.21V0H1587.79V16.2091H1604V31.7909H1587.79V48H1572.21V31.7909H1556V16.2091Z" fill="#F1F2F3"/>
</g>
</svg>
