<svg width="44" height="44" viewBox="0 0 44 44" fill="none" xmlns="http://www.w3.org/2000/svg">
<path fill-rule="evenodd" clip-rule="evenodd" d="M9.00078 1.7998C5.02433 1.7998 1.80078 5.02335 1.80078 8.9998V34.1998C1.80078 38.1762 5.02433 41.3998 9.00078 41.3998H34.2008C38.1772 41.3998 41.4008 38.1762 41.4008 34.1998V8.9998C41.4008 5.02335 38.1772 1.7998 34.2008 1.7998H9.00078ZM17.4281 13.0907C17.4281 9.83725 20.0656 7.1998 23.3189 7.1998H28.5553C28.9169 7.1998 29.2099 7.49286 29.2099 7.85436V13.0907C29.2099 13.4522 28.9169 13.7453 28.5553 13.7453H25.9372C24.8527 13.7453 23.9735 14.6244 23.9735 15.7089V17.6725H28.5553C28.7569 17.6725 28.9471 17.7654 29.0713 17.9243C29.1953 18.0831 29.2393 18.2903 29.1903 18.4858L27.8812 23.7222C27.8084 24.0136 27.5465 24.2179 27.2463 24.2179H23.9735V35.3453C23.9735 35.7068 23.6805 35.9998 23.3189 35.9998H18.0827C17.7211 35.9998 17.4281 35.7068 17.4281 35.3453V24.2179H14.1553C13.7938 24.2179 13.5008 23.9249 13.5008 23.5634V18.327C13.5008 17.9656 13.7938 17.6725 14.1553 17.6725H17.4281V13.0907Z" fill="#868686"/>
</svg>
