<svg width="44" height="44" viewBox="0 0 44 44" fill="none" xmlns="http://www.w3.org/2000/svg">
<path fill-rule="evenodd" clip-rule="evenodd" d="M9.19902 1.7998C5.22257 1.7998 1.99902 5.02335 1.99902 8.9998V34.1998C1.99902 38.1762 5.22257 41.3998 9.19902 41.3998H34.399C38.3754 41.3998 41.599 38.1762 41.599 34.1998V8.9998C41.599 5.02335 38.3754 1.7998 34.399 1.7998H9.19902ZM8.29902 16.1998C8.29902 11.7263 11.9255 8.0998 16.399 8.0998H27.199C31.6726 8.0998 35.299 11.7263 35.299 16.1998V26.9998C35.299 31.4733 31.6726 35.0998 27.199 35.0998H16.399C11.9255 35.0998 8.29902 31.4733 8.29902 26.9998V16.1998ZM16.399 9.8998C12.9196 9.8998 10.099 12.7204 10.099 16.1998V26.9998C10.099 30.4792 12.9196 33.2998 16.399 33.2998H27.199C30.6784 33.2998 33.499 30.4792 33.499 26.9998V16.1998C33.499 12.7204 30.6784 9.8998 27.199 9.8998H16.399ZM30.799 14.6998C30.799 15.5282 30.1274 16.1998 29.2991 16.1998C28.4705 16.1998 27.799 15.5282 27.799 14.6998C27.799 13.8714 28.4705 13.1998 29.2991 13.1998C30.1274 13.1998 30.799 13.8714 30.799 14.6998ZM14.899 21.5998C14.899 17.789 17.9883 14.6998 21.799 14.6998C25.6098 14.6998 28.699 17.789 28.699 21.5998C28.699 25.4106 25.6098 28.4997 21.799 28.4997C17.9883 28.4997 14.899 25.4106 14.899 21.5998ZM21.799 16.4998C18.9824 16.4998 16.699 18.7832 16.699 21.5998C16.699 24.4164 18.9824 26.6997 21.799 26.6997C24.6157 26.6997 26.899 24.4164 26.899 21.5998C26.899 18.7832 24.6157 16.4998 21.799 16.4998Z" fill="#868686"/>
</svg>
