<svg width="44" height="44" viewBox="0 0 44 44" fill="none" xmlns="http://www.w3.org/2000/svg">
<path fill-rule="evenodd" clip-rule="evenodd" d="M9.39873 1.7998C5.42228 1.7998 2.19873 5.02335 2.19873 8.9998V34.1998C2.19873 38.1762 5.42228 41.3998 9.39873 41.3998H34.5987C38.5751 41.3998 41.7987 38.1762 41.7987 34.1998V8.9998C41.7987 5.02335 38.5751 1.7998 34.5987 1.7998H9.39873ZM11.5669 14.2362C13.2614 14.2362 14.6351 12.8625 14.6351 11.168C14.6351 9.47347 13.2614 8.0998 11.5669 8.0998C9.8724 8.0998 8.49873 9.47347 8.49873 11.168C8.49873 12.8625 9.8724 14.2362 11.5669 14.2362ZM14.6351 35.0998V16.6907H8.49873V35.0998H14.6351ZM22.6124 16.6907H17.0896V35.0998H22.6124V23.9945C23.3239 22.8375 24.5511 21.5998 26.2943 21.5998C28.7487 21.5998 29.3624 24.0543 29.3624 25.2817V35.0998H35.4987V25.2817C35.4987 21.9929 34.0632 16.6907 28.7487 16.6907C25.3685 16.6907 23.4917 17.9239 22.6124 19.0791V16.6907Z" fill="#868686"/>
</svg>
