<svg width="150" height="40" viewBox="0 0 150 40" fill="none" xmlns="http://www.w3.org/2000/svg">
<g clip-path="url(#clip0_74_733)">
<path d="M61.3022 5.59412H64.6999V22.2315H70.5569V25.5156H61.3165L61.3022 5.59412Z" fill="#000083"/>
<path d="M78.4258 10.5844C80.226 10.5615 81.9324 11.3965 83.0393 12.8413V10.881H86.2092V25.5436H83.0393V23.5833C81.9324 25.028 80.226 25.8631 78.4258 25.8401C74.4738 25.8401 71.4741 22.4042 71.4741 18.2087C71.4741 14.0131 74.4738 10.5844 78.4258 10.5844ZM79.0019 13.5212C76.4358 13.5212 74.7366 15.5756 74.7366 18.2087C74.7366 20.8417 76.4639 22.9033 79.0019 22.9033C81.5395 22.9033 83.2668 20.8489 83.2668 18.2087C83.2668 15.5684 81.5676 13.5212 79.0019 13.5212Z" fill="#000083"/>
<path d="M88.6777 22.9979L96.2337 13.8112H88.7912V10.8816H100.328V13.464L92.8005 22.6146H100.498V25.5442H88.6777V22.9979Z" fill="#000083"/>
<path d="M108.557 10.5845C110.357 10.5616 112.064 11.3966 113.17 12.8414V10.8811H116.341V25.5437H113.17V23.5834C112.064 25.0282 110.357 25.8632 108.557 25.8403C104.605 25.8403 101.612 22.4043 101.612 18.2088C101.612 14.0132 104.605 10.5845 108.557 10.5845ZM109.133 13.5213C106.567 13.5213 104.868 15.5757 104.868 18.2088C104.868 20.8418 106.595 22.9034 109.133 22.9034C111.67 22.9034 113.398 20.849 113.398 18.2088C113.398 15.5685 111.699 13.5213 109.133 13.5213Z" fill="#000083"/>
<path d="M125.398 10.5846C127.196 10.5605 128.9 11.396 130.004 12.8414V4.41425H133.174V25.5437H130.004V23.5835C128.9 25.0289 127.196 25.8644 125.398 25.8403C121.445 25.8403 118.446 22.4043 118.446 18.2088C118.446 14.0133 121.445 10.5846 125.398 10.5846ZM125.973 13.5214C123.407 13.5214 121.708 15.5758 121.708 18.2088C121.708 20.8419 123.443 22.9035 125.973 22.9035C128.504 22.9035 130.238 20.8491 130.238 18.2088C130.238 15.5685 128.539 13.5214 125.973 13.5214Z" fill="#000083"/>
<path d="M142.228 10.5846C144.026 10.5605 145.731 11.396 146.834 12.8414V10.8811H149.997V25.5437H146.82V23.5834C145.717 25.0288 144.012 25.8644 142.214 25.8403C138.262 25.8403 135.262 22.4043 135.262 18.2088C135.262 14.0133 138.276 10.5846 142.228 10.5846ZM142.804 13.5214C140.238 13.5214 138.539 15.5758 138.539 18.2088C138.539 20.8419 140.273 22.9035 142.804 22.9035C145.334 22.9035 147.069 20.8491 147.069 18.2088C147.069 15.5685 145.37 13.5214 142.804 13.5214Z" fill="#000083"/>
<path d="M24.2167 39.9983C23.873 40.0007 23.5347 39.9112 23.2355 39.7387C20.6747 38.231 1.70863 26.1292 0.99238 25.7597C0.447286 25.5008 0.0750706 24.9705 0.0112069 24.3618V7.3873C-0.00289789 6.75369 0.304902 6.15741 0.825577 5.80969L0.962941 5.7298C2.79774 4.57154 8.93984 0.757274 9.91121 0.208098C10.1341 0.0734855 10.388 0.00115208 10.6471 -0.00158691C10.89 0.00121053 11.1288 0.0628186 11.3438 0.178143C11.3438 0.178143 19.9388 5.87958 21.2536 6.38881C22.1761 6.82013 23.182 7.0351 24.1971 7.01787C25.3474 7.04234 26.4839 6.76007 27.4938 6.1991C28.7792 5.51013 36.9916 0.208098 37.0799 0.208098C37.2869 0.0808333 37.5248 0.0151139 37.7667 0.0183831C38.0261 0.019675 38.2803 0.0921126 38.5026 0.228068C39.6211 0.85712 47.235 5.6 47.5588 5.80969C48.0943 6.13847 48.4189 6.73094 48.4124 7.36734V24.3418C48.3524 24.952 47.979 25.484 47.4313 25.7397C46.715 26.1391 27.8078 38.241 25.1979 39.7188C24.9008 39.8983 24.5623 39.9947 24.2167 39.9983Z" fill="url(#paint0_linear_74_733)"/>
<path d="M24.1206 39.9978L24.2187 39.9977C24.5625 40.0001 24.9008 39.9106 25.1999 39.7381C27.7607 38.2303 46.717 26.1285 47.4333 25.7591C47.9809 25.5033 48.3544 24.9714 48.4144 24.3612V7.38666C48.4176 7.09931 48.3537 6.81529 48.228 6.55792L24.1206 20.0277V39.9978Z" fill="url(#paint1_linear_74_733)"/>
<path d="M24.0352 39.7581L23.9381 39.758C23.598 39.7604 23.2633 39.6718 22.9674 39.5012C20.4338 38.0095 1.6795 26.0366 0.97086 25.6711C0.429018 25.4181 0.0595894 24.8918 0.000175476 24.2881V7.49441C-0.00295258 7.21012 0.0602341 6.92912 0.184607 6.6745L24.0352 20.0007V39.7581Z" fill="url(#paint2_linear_74_733)"/>
</g>
<defs>
<linearGradient id="paint0_linear_74_733" x1="-0.0186583" y1="0.363935" x2="47.9382" y2="-0.00107107" gradientUnits="userSpaceOnUse">
<stop offset="1e-07" stop-color="#FF9200"/>
<stop offset="0.337553" stop-color="#F36D00"/>
<stop offset="0.56729" stop-color="#F83C72"/>
<stop offset="0.78" stop-color="#FC1CBE"/>
<stop offset="0.93" stop-color="#FE08ED"/>
<stop offset="1" stop-color="#FF00FF"/>
</linearGradient>
<linearGradient id="paint1_linear_74_733" x1="13.4558" y1="35.8235" x2="62.7479" y2="9.0045" gradientUnits="userSpaceOnUse">
<stop stop-color="#EE0A3F"/>
<stop offset="1" stop-color="#EE0A3F" stop-opacity="0"/>
</linearGradient>
<linearGradient id="paint2_linear_74_733" x1="18.2123" y1="28.6434" x2="-5.7387" y2="9.68432" gradientUnits="userSpaceOnUse">
<stop stop-color="#ED6600"/>
<stop offset="1" stop-color="#F98200"/>
</linearGradient>
<clipPath id="clip0_74_733">
<rect width="150" height="40" fill="white"/>
</clipPath>
</defs>
</svg>
