<svg width="203" height="40" viewBox="0 0 203 40" fill="none" xmlns="http://www.w3.org/2000/svg">
<path fill-rule="evenodd" clip-rule="evenodd" d="M0.233964 35.1255C0.233964 35.028 0.233964 34.9304 0.233964 34.8329C0.233964 30.8831 0.182875 26.982 0.285052 23.0322C0.33614 19.8138 0.847028 16.693 2.02207 13.6697C3.09493 10.8414 4.72976 8.30572 7.02875 6.20891C9.02121 4.40467 11.3202 3.0393 13.9257 2.1128C16.4802 1.1863 19.1368 0.698667 21.8445 0.503614C22.8151 0.454851 23.7858 0.406086 24.7565 0.406086C83.815 0.406086 142.822 0.406086 201.881 0.406086C202.494 0.406086 202.443 0.357322 202.443 0.94248C202.443 5.67251 202.443 10.4513 202.443 15.1813C202.443 17.2294 202.341 19.2287 201.983 21.2767C201.421 24.4951 200.399 27.5184 198.56 30.2492C197.334 32.1022 195.75 33.7113 193.911 35.0767C193.86 35.1255 193.809 35.1255 193.707 35.1742C193.656 35.1742 193.656 35.1742 193.604 35.1742C193.604 35.0767 193.502 35.0767 193.451 35.0767C193.298 35.0767 193.145 35.0767 192.991 35.0767C128.977 35.0767 65.0144 35.0767 1.00029 35.0767C0.693762 35.1255 0.438319 35.1255 0.233964 35.1255ZM41.6158 19.375C41.7179 19.57 41.769 19.6675 41.8201 19.8138C42.2799 20.9354 42.7397 22.1057 43.2506 23.2273C43.6082 24.0562 43.9148 24.934 44.3235 25.7629C45.2942 28.0061 47.6953 29.1764 50.0454 28.4937C51.5781 28.0548 52.5998 27.0308 53.0596 25.5679C54.0814 22.447 55.1032 19.375 56.0739 16.2541C56.4315 15.0838 56.8402 13.9623 57.1978 12.7919C57.5043 11.7679 56.8402 10.6951 55.8184 10.4513C54.6945 10.1587 53.6727 10.7439 53.3151 11.7679C51.9868 15.9615 50.5563 20.1064 49.1769 24.3001C49.1258 24.3976 49.1258 24.4463 49.0747 24.5439C48.9725 24.7389 48.8193 24.7877 48.6149 24.6901C48.4106 24.5926 48.3084 24.3976 48.2573 24.2025C47.1333 21.3255 45.9583 18.4485 44.7833 15.5714C44.5789 15.035 44.3235 14.4986 43.9148 14.011C42.8419 12.6944 40.5429 12.6944 39.5722 14.1573C39.0613 14.9375 38.7037 15.7665 38.3461 16.5955C37.3243 19.0824 36.3536 21.6181 35.3319 24.105C35.2808 24.2513 35.2297 24.4463 35.0764 24.5926C34.8721 24.7877 34.5655 24.7389 34.4634 24.4951C34.4123 24.3976 34.4123 24.3488 34.4123 24.2513C33.2883 20.8866 32.2155 17.522 31.0915 14.1573C30.8361 13.3283 30.5806 12.4994 30.2741 11.6704C29.9676 10.8902 29.3545 10.4513 28.486 10.4025C27.6175 10.305 26.9533 10.6951 26.5446 11.4266C26.2892 11.9142 26.2381 12.4506 26.4424 12.987C27.0555 14.84 27.6686 16.693 28.2816 18.5948C29.048 21.0329 29.8654 23.4223 30.6828 25.8605C31.398 27.9573 33.4416 29.0301 35.7406 28.64C37.5287 28.3474 38.7548 27.2746 39.3679 25.6654C40.1342 23.7149 40.7983 21.7644 41.5136 19.8138C41.4625 19.6675 41.5136 19.5213 41.6158 19.375ZM75.3343 26.3969C75.3343 26.4456 75.3854 26.4456 75.3854 26.4456C75.3854 26.6407 75.4365 26.8357 75.4365 27.0308C75.5386 27.8598 76.2539 28.5912 77.0713 28.6887C78.0931 28.835 78.8083 28.3962 79.1659 27.5184C79.3192 27.1283 79.4214 26.6894 79.4214 26.2506C79.4214 24.6902 79.4214 23.1785 79.4214 21.6181C79.4214 20.4478 79.4725 19.2287 79.3192 18.0584C78.8083 14.6449 76.918 12.3043 73.4951 11.134C72.1157 10.6464 70.6341 10.5001 69.1525 10.4513C67.6199 10.4025 66.1383 10.5976 64.7078 11.0852C62.3578 11.8654 60.5186 13.2796 59.3435 15.4251C58.4239 17.0831 58.1685 18.8386 58.3728 20.6916C58.6283 22.7396 59.4968 24.5439 60.9784 26.0068C62.6643 27.6159 64.7078 28.5424 67.0579 28.7863C70.0211 29.0788 72.6777 28.3962 75.0277 26.5432C75.181 26.4944 75.2321 26.3969 75.3343 26.3969ZM126.116 10.4513C124.226 10.4513 122.898 10.6464 121.57 11.0852C116.41 12.7919 114.264 17.4732 115.49 21.9594C116.256 24.7877 118.249 26.7382 121.059 27.8598C123.715 28.9325 126.474 28.9813 129.233 28.2011C131.225 27.6647 132.911 26.6407 134.188 25.0803C135.823 23.081 136.385 20.7891 136.028 18.3509C135.67 15.669 134.24 13.6209 131.941 12.158C129.999 10.9389 127.904 10.4513 126.116 10.4513ZM106.396 14.4986C107.52 14.5474 108.644 14.5474 109.768 14.5962C110.023 14.5962 110.228 14.5962 110.483 14.5474C110.739 14.4986 110.994 14.4011 111.25 14.2548C112.374 13.5721 112.322 12.0605 111.147 11.4753C110.483 11.134 109.768 11.0852 109.053 11.0365C107.111 10.8902 105.17 10.8902 103.28 10.9389C102.054 10.9877 100.828 11.1827 99.7036 11.6704C98.5796 12.158 97.66 12.8407 97.098 13.9135C96.6382 14.7912 96.485 15.7665 96.5872 16.7418C96.7404 18.3509 97.5068 19.6188 99.0394 20.399C99.6014 20.6916 100.214 20.9354 100.879 21.0817C102.105 21.423 103.382 21.5205 104.659 21.6668C105.63 21.7644 106.549 21.8619 107.52 22.0569C107.98 22.1545 108.389 22.3008 108.797 22.4958C109.564 22.9347 109.666 23.8124 109.002 24.4463C108.797 24.6414 108.542 24.7389 108.286 24.8364C107.98 24.934 107.673 25.0315 107.367 25.0803C105.936 25.3241 104.506 25.3241 103.075 25.129C101.594 24.934 100.112 24.7877 98.6307 24.7389C98.1709 24.7389 97.7111 24.7877 97.2513 24.9827C96.7404 25.2265 96.3828 25.5679 96.2806 26.153C96.1274 26.982 96.485 27.9573 97.66 28.2499C98.2731 28.3962 98.8861 28.4937 99.4992 28.5424C102.003 28.7863 104.455 28.835 106.958 28.64C108.031 28.5424 109.104 28.2986 110.126 27.9085C111.965 27.1283 113.089 25.8117 113.293 23.9099C113.498 22.1545 112.936 20.6916 111.25 19.7163C110.994 19.57 110.739 19.4237 110.432 19.3262C109.41 18.8873 108.338 18.6435 107.265 18.4485C105.936 18.2047 104.608 18.1071 103.331 17.8633C102.667 17.7658 102.003 17.6195 101.389 17.3757C100.981 17.2294 100.674 16.9856 100.521 16.5467C100.266 15.8153 100.572 15.1813 101.338 14.8888C101.849 14.6937 102.411 14.5962 102.973 14.5474C104.046 14.4011 105.221 14.4011 106.396 14.4986ZM170.359 14.2061C170.768 14.2061 171.228 14.2548 171.636 14.2548C172.045 14.2548 172.505 14.2548 172.914 14.3036C173.322 14.3036 173.68 14.3036 174.089 14.3036C174.6 14.2548 175.11 14.1085 175.468 13.7184C175.979 13.2308 176.132 12.0117 175.161 11.3778C174.6 10.9877 173.884 10.8414 173.22 10.7926C171.279 10.6464 169.286 10.5976 167.345 10.6464C166.272 10.6464 165.199 10.7926 164.126 11.134C163.053 11.4753 162.083 11.963 161.368 12.8407C160.55 13.816 160.295 14.9863 160.346 16.2054C160.397 17.1806 160.601 18.0584 161.214 18.8386C161.776 19.57 162.543 20.0577 163.411 20.399C164.637 20.8866 165.914 21.1304 167.243 21.3255C168.367 21.4718 169.542 21.5205 170.666 21.7156C171.279 21.8131 171.892 21.9594 172.454 22.252C173.373 22.7396 173.424 23.7149 172.658 24.3001C172.352 24.4951 172.045 24.6414 171.687 24.7389C170.972 24.934 170.257 25.0315 169.542 25.0315C167.192 25.129 164.842 24.9827 162.543 24.5439C161.878 24.4463 161.316 24.5439 160.755 24.8364C160.448 24.9827 160.295 25.2266 160.141 25.5191C159.682 26.5919 160.346 27.7622 161.521 28.006C162.696 28.2499 163.871 28.3962 165.097 28.4449C166.374 28.4937 167.651 28.4937 168.929 28.4937C170.053 28.4937 171.228 28.3962 172.352 28.1523C173.68 27.9085 174.804 27.2746 175.775 26.3969C176.183 26.0068 176.49 25.5191 176.745 24.9827C177.103 24.1538 177.154 23.276 177.052 22.3495C176.899 21.1304 176.285 20.2527 175.213 19.57C174.753 19.2774 174.293 19.0336 173.833 18.8873C172.352 18.3022 170.768 18.0584 169.235 17.8145C168.162 17.6683 167.141 17.5707 166.119 17.3269C165.761 17.2294 165.404 17.1319 165.046 16.9368C164.484 16.6442 164.28 16.2054 164.331 15.6202C164.382 15.0838 164.688 14.7425 165.199 14.5474C165.352 14.4986 165.455 14.4499 165.608 14.4011C166.17 14.2548 166.783 14.2061 167.345 14.1573C168.265 14.1573 169.337 14.1573 170.359 14.2061ZM138.684 22.3008C138.633 22.3008 138.633 22.3008 138.684 22.3008C138.684 23.7149 138.684 25.1778 138.684 26.5919C138.684 27.0308 138.786 27.4697 138.94 27.8598C139.195 28.3474 139.553 28.7375 140.166 28.8838C141.29 29.1764 142.363 28.64 142.72 27.5184C142.822 27.1283 142.873 26.7382 142.873 26.2993C142.873 23.9587 142.873 21.5693 142.873 19.2287C142.873 18.4972 142.976 17.7658 143.231 17.0343C143.64 15.864 144.457 14.9863 145.734 14.5962C147.42 14.0598 149.106 14.0598 150.792 14.5962C152.172 15.035 152.989 15.9615 153.347 17.2781C153.5 17.8633 153.5 18.3997 153.5 18.9849C153.5 21.423 153.5 23.8124 153.5 26.2506C153.5 26.7382 153.551 27.2746 153.806 27.7135C154.164 28.3962 154.726 28.7375 155.543 28.7375C156.361 28.7375 156.974 28.4449 157.383 27.7622C157.638 27.3721 157.74 26.8845 157.74 26.4456C157.74 23.6661 157.74 20.8379 157.74 18.0584C157.74 17.0831 157.536 16.1566 157.127 15.2789C156.208 13.2796 154.624 12.0117 152.529 11.329C149.668 10.4025 146.807 10.4513 143.997 11.329C142.567 11.7679 141.392 12.5481 140.421 13.6697C139.348 14.9375 138.837 16.4492 138.786 18.0584C138.633 19.5213 138.684 20.9354 138.684 22.3008ZM82.5889 16.7418C82.5889 17.717 82.5889 18.6923 82.5889 19.6675C82.5889 20.6428 82.5889 21.6181 82.5889 22.5933C82.5889 23.081 82.5889 23.6174 82.64 24.105C82.8954 26.2506 84.2748 27.811 86.4205 28.3962C88.3108 28.8838 90.2522 28.835 92.1424 28.2986C92.5001 28.2011 92.8577 28.0548 93.1642 27.8598C93.7773 27.4209 93.8795 26.787 93.7262 26.1043C93.5729 25.4704 93.1642 25.0803 92.5001 24.934C92.0914 24.8364 91.6826 24.8852 91.325 24.8852C90.763 24.934 90.2522 24.9827 89.6902 24.9827C89.2815 24.9827 88.8728 24.9827 88.5151 24.8852C87.6466 24.6902 87.1358 24.2025 86.9314 23.4223C86.8803 23.1785 86.8292 22.9347 86.8292 22.6421C86.8292 20.2527 86.8292 17.9121 86.8292 15.5227C86.8292 14.9375 86.7781 14.9863 87.3912 14.9863C88.7195 14.9863 90.0478 14.9863 91.325 14.9863C91.8359 14.9863 92.3468 14.9375 92.8066 14.6937C93.5218 14.3524 93.7262 13.7672 93.7262 13.0845C93.7262 12.4018 93.3686 11.963 92.7044 11.6704C92.2957 11.5241 91.887 11.4266 91.4272 11.4266C90.3543 11.4266 89.3326 11.4266 88.2597 11.4266C87.851 11.4266 87.4934 11.4266 87.0847 11.4266C86.8803 11.4266 86.8292 11.329 86.8292 11.1827C86.8292 10.8414 86.8292 10.4513 86.8292 10.11C86.8292 9.67109 86.7271 9.23222 86.5227 8.79336C86.1651 8.11067 85.552 7.72057 84.7346 7.72057C83.9172 7.72057 83.3552 8.11067 82.9976 8.79336C82.7421 9.23222 82.64 9.71985 82.64 10.2075C82.5889 12.4018 82.5889 14.5474 82.5889 16.7418Z" fill="#00A0A0"/>
<path fill-rule="evenodd" clip-rule="evenodd" d="M0.234437 35.126C0.438792 35.126 0.694235 35.126 0.898589 35.126C64.9127 35.126 128.876 35.126 192.89 35.126C193.043 35.126 193.196 35.126 193.35 35.126C193.401 35.126 193.503 35.126 193.503 35.2235C193.401 35.2235 193.298 35.2723 193.35 35.3698C193.247 35.321 193.196 35.3698 193.196 35.4673C193.145 35.4673 193.094 35.4673 193.094 35.5648C193.043 35.5648 192.992 35.5648 192.992 35.6624C192.89 35.6136 192.839 35.6624 192.839 35.7599C192.685 35.7111 192.634 35.8087 192.583 35.9062C192.481 35.8574 192.43 35.9062 192.43 36.0037C192.379 36.0037 192.328 36.0037 192.328 36.1012C192.174 36.0525 192.072 36.15 191.97 36.2475C191.919 36.2475 191.868 36.2963 191.919 36.3451C191.715 36.3451 191.561 36.3938 191.459 36.5889C191.357 36.5401 191.306 36.5889 191.306 36.6864C191.204 36.6376 191.153 36.6864 191.153 36.7839C191.051 36.7352 190.999 36.7352 190.999 36.8814C190.897 36.8327 190.846 36.8327 190.846 36.979C190.744 36.9302 190.693 36.979 190.693 37.0765C190.591 37.0277 190.54 37.0765 190.54 37.174C190.437 37.1253 190.386 37.1253 190.386 37.2716C190.284 37.2228 190.233 37.2228 190.233 37.3691C189.978 37.3203 189.773 37.4178 189.62 37.6129C189.365 37.6129 189.16 37.6617 189.007 37.8567C188.854 37.7592 188.752 37.8567 188.649 37.9055C187.781 38.1981 186.963 38.4419 186.095 38.6857C183.438 39.3196 180.782 39.5634 178.074 39.5634C119.016 39.5634 59.906 39.5634 0.8475 39.5634C0.694234 39.5634 0.540969 39.5634 0.387703 39.5634C0.183348 38.003 0.183349 36.5401 0.234437 35.126Z" fill="#E22826"/>
<path fill-rule="evenodd" clip-rule="evenodd" d="M0.236148 39.4168C0.389414 39.4168 0.542679 39.4168 0.695945 39.4168C59.7544 39.4168 118.864 39.4168 177.922 39.4168C180.63 39.4168 183.338 39.173 185.943 38.5391C186.812 38.344 187.68 38.0515 188.498 37.7589C188.6 37.7101 188.702 37.6126 188.855 37.7101C188.855 37.8564 188.702 37.8076 188.651 37.8564C186.71 38.5391 184.717 39.0267 182.674 39.2705C181.294 39.4656 179.915 39.5144 178.536 39.5631C178.433 39.5631 178.331 39.5631 178.178 39.5631C178.025 39.4656 177.82 39.5144 177.616 39.5144C118.711 39.5144 59.8055 39.5144 0.9003 39.5144C0.644857 39.5144 0.389413 39.5144 0.185059 39.5144C0.236147 39.4656 0.236148 39.4168 0.236148 39.4168Z" fill="#339C9C"/>
<path fill-rule="evenodd" clip-rule="evenodd" d="M0.236816 39.5143C0.49226 39.5143 0.747702 39.5143 0.952056 39.5143C59.8573 39.5143 118.762 39.5143 177.668 39.5143C177.872 39.5143 178.025 39.4655 178.23 39.563C178.076 39.563 177.872 39.563 177.719 39.563C118.711 39.563 59.704 39.563 0.696613 39.563C0.543347 39.563 0.390082 39.6606 0.236816 39.5143Z" fill="#36ACB0"/>
<path fill-rule="evenodd" clip-rule="evenodd" d="M188.906 37.7098C189.06 37.5148 189.264 37.466 189.519 37.466C189.366 37.6611 189.162 37.7098 188.906 37.7098Z" fill="#339C9C"/>
<path fill-rule="evenodd" clip-rule="evenodd" d="M189.52 37.4659C189.673 37.2708 189.878 37.1733 190.133 37.2221C189.98 37.4171 189.724 37.4659 189.52 37.4659Z" fill="#339C9C"/>
<path fill-rule="evenodd" clip-rule="evenodd" d="M191.459 36.5389C191.562 36.3438 191.715 36.295 191.919 36.295C191.817 36.4901 191.664 36.5389 191.459 36.5389Z" fill="#339C9C"/>
<path fill-rule="evenodd" clip-rule="evenodd" d="M191.972 36.198C192.074 36.1005 192.177 36.003 192.33 36.0517C192.279 36.1493 192.177 36.198 192.125 36.198C192.074 36.198 192.023 36.198 191.972 36.198Z" fill="#567070"/>
<path fill-rule="evenodd" clip-rule="evenodd" d="M193.349 35.4178C193.349 35.2715 193.4 35.2715 193.502 35.2715C193.553 35.2715 193.553 35.2715 193.605 35.2715C193.553 35.3202 193.502 35.4178 193.349 35.4178Z" fill="#567070"/>
<path fill-rule="evenodd" clip-rule="evenodd" d="M192.585 35.9058C192.637 35.7595 192.688 35.7107 192.841 35.7595C192.841 35.857 192.739 35.9058 192.585 35.9058Z" fill="#567070"/>
<path fill-rule="evenodd" clip-rule="evenodd" d="M193.2 35.466C193.2 35.3684 193.251 35.3197 193.353 35.3684C193.353 35.466 193.302 35.5147 193.2 35.466Z" fill="#567070"/>
<path fill-rule="evenodd" clip-rule="evenodd" d="M192.43 36.0035C192.43 35.906 192.481 35.9059 192.583 35.9059C192.583 36.0035 192.532 36.0035 192.43 36.0035Z" fill="#567070"/>
<path fill-rule="evenodd" clip-rule="evenodd" d="M191.969 36.198C192.02 36.198 192.071 36.198 192.122 36.198C192.071 36.2468 192.02 36.2955 191.918 36.2955C191.867 36.2468 191.918 36.2468 191.969 36.198Z" fill="#339C9C"/>
<path fill-rule="evenodd" clip-rule="evenodd" d="M191.306 36.6369C191.306 36.5393 191.357 36.4906 191.459 36.5393C191.459 36.6369 191.408 36.6369 191.306 36.6369Z" fill="#339C9C"/>
<path fill-rule="evenodd" clip-rule="evenodd" d="M191.154 36.7349C191.154 36.6374 191.256 36.6374 191.308 36.6374C191.308 36.7349 191.205 36.7349 191.154 36.7349Z" fill="#339C9C"/>
<path fill-rule="evenodd" clip-rule="evenodd" d="M190.951 36.7836C190.951 36.686 191.053 36.686 191.104 36.686C191.104 36.8323 191.053 36.8323 190.951 36.7836Z" fill="#339C9C"/>
<path fill-rule="evenodd" clip-rule="evenodd" d="M190.798 36.8814C190.798 36.7838 190.9 36.7351 190.951 36.7838C190.951 36.9301 190.9 36.9301 190.798 36.8814Z" fill="#339C9C"/>
<path fill-rule="evenodd" clip-rule="evenodd" d="M190.644 36.9785C190.644 36.881 190.746 36.881 190.797 36.881C190.797 36.9785 190.695 36.9785 190.644 36.9785Z" fill="#339C9C"/>
<path fill-rule="evenodd" clip-rule="evenodd" d="M190.439 37.027C190.439 36.9294 190.541 36.9294 190.592 36.9294C190.592 37.0757 190.541 37.0757 190.439 37.027Z" fill="#339C9C"/>
<path fill-rule="evenodd" clip-rule="evenodd" d="M190.286 37.125C190.286 37.0275 190.388 37.0275 190.439 37.0275C190.439 37.1738 190.388 37.1738 190.286 37.125Z" fill="#339C9C"/>
<path fill-rule="evenodd" clip-rule="evenodd" d="M190.083 37.2219C190.083 37.1244 190.185 37.0757 190.236 37.1244C190.287 37.2219 190.185 37.2219 190.083 37.2219Z" fill="#339C9C"/>
<path fill-rule="evenodd" clip-rule="evenodd" d="M192.839 35.7104C192.839 35.6129 192.89 35.5641 192.992 35.6129C192.992 35.7104 192.941 35.7592 192.839 35.7104Z" fill="#567070"/>
<path fill-rule="evenodd" clip-rule="evenodd" d="M193.096 35.5633C193.096 35.5149 193.146 35.4665 193.197 35.4665C193.197 35.5633 193.197 35.5633 193.096 35.5633Z" fill="#567070"/>
<path fill-rule="evenodd" clip-rule="evenodd" d="M193.047 35.6611C192.996 35.5635 193.047 35.5635 193.149 35.5635C193.098 35.6123 193.098 35.6611 193.047 35.6611Z" fill="#567070"/>
<path fill-rule="evenodd" clip-rule="evenodd" d="M192.329 36.0513C192.329 35.9545 192.379 35.9545 192.43 35.9545C192.43 36.0513 192.379 36.0513 192.329 36.0513Z" fill="#567070"/>
<path fill-rule="evenodd" clip-rule="evenodd" d="M41.6184 19.3753C41.5162 19.5216 41.4651 19.6678 41.414 19.7654C40.6988 21.7159 40.0346 23.7152 39.2683 25.617C38.6552 27.2261 37.4291 28.2989 35.641 28.5915C33.342 28.9816 31.2985 27.8601 30.5832 25.812C29.7658 23.3738 28.9995 20.9844 28.1821 18.5463C27.569 16.6933 26.9559 14.8403 26.3429 12.9385C26.1896 12.4021 26.1896 11.8657 26.4451 11.3781C26.8538 10.6467 27.4668 10.2565 28.3864 10.3541C29.2549 10.4516 29.868 10.8417 30.1745 11.6219C30.4811 12.4509 30.7365 13.2799 30.9919 14.1088C32.1159 17.4735 33.1888 20.8382 34.3127 24.2028C34.3638 24.3003 34.3638 24.3491 34.3638 24.4466C34.466 24.7392 34.7725 24.7392 34.9769 24.5442C35.1301 24.3979 35.1812 24.2516 35.2323 24.0565C36.2541 21.5696 37.2248 19.0339 38.2465 16.547C38.6042 15.718 38.9618 14.889 39.4727 14.1088C40.4944 12.6459 42.7423 12.6459 43.8152 13.9625C44.2239 14.4502 44.4794 14.9378 44.6837 15.523C45.8587 18.4 46.9827 21.277 48.1577 24.1541C48.2599 24.3491 48.3621 24.5442 48.5154 24.6417C48.7197 24.7392 48.873 24.6905 48.9752 24.4954C49.0262 24.3979 49.0262 24.3491 49.0773 24.2516C50.4567 20.0579 51.8361 15.9131 53.2155 11.7194C53.522 10.6954 54.5949 10.159 55.7189 10.4028C56.7406 10.6467 57.4048 11.7194 57.0982 12.7435C56.7406 13.9138 56.383 15.0841 55.9743 16.2057C54.9525 19.3265 53.9308 22.3986 52.9601 25.5194C52.5003 26.9823 51.4785 28.0064 49.9458 28.4452C47.5958 29.1279 45.1946 28.0063 44.2239 25.7145C43.8663 24.8855 43.5087 24.0078 43.151 23.1788C42.6912 22.0572 42.2314 20.8869 41.7206 19.7654C41.7717 19.6678 41.7206 19.5703 41.6184 19.3753Z" fill="white"/>
<path fill-rule="evenodd" clip-rule="evenodd" d="M75.3372 26.3975C75.1839 26.3975 75.1329 26.495 75.0818 26.5438C72.7828 28.348 70.0751 29.0795 67.1119 28.7869C64.7619 28.5431 62.7183 27.6653 61.0324 26.0074C59.4997 24.5445 58.6823 22.7402 58.4269 20.6922C58.2225 18.8392 58.478 17.0837 59.3975 15.4258C60.5726 13.2802 62.4118 11.866 64.7619 11.0858C66.1923 10.5982 67.6739 10.4031 69.2066 10.4519C70.6881 10.5007 72.1186 10.647 73.5491 11.1346C76.972 12.3049 78.8623 14.6455 79.3732 18.059C79.5265 19.2293 79.4754 20.4484 79.4754 21.6187C79.4754 23.1791 79.4754 24.6908 79.4754 26.2512C79.4754 26.6901 79.4243 27.1289 79.2199 27.519C78.8623 28.3968 78.096 28.7869 77.1253 28.6893C76.3079 28.5918 75.5927 27.8604 75.4905 27.0314C75.4905 26.8363 75.4394 26.6413 75.4394 26.4462C75.3883 26.4462 75.3883 26.4462 75.3372 26.3975ZM68.9511 14.0116C68.5424 14.0116 68.0826 14.0116 67.6739 14.1091C66.55 14.2554 65.4771 14.6455 64.5575 15.3282C63.0248 16.4985 62.3607 18.059 62.4118 19.8632C62.4629 21.9113 63.4846 23.4229 65.3749 24.3494C67.6228 25.471 69.9729 25.4222 72.2719 24.4957C73.7535 23.9106 74.7752 22.8378 75.2861 21.3749C75.6437 20.3996 75.6948 19.4243 75.4905 18.4491C75.235 16.7424 74.3154 15.5233 72.6806 14.7918C71.4545 14.2067 70.2283 14.0604 68.9511 14.0116Z" fill="white"/>
<path fill-rule="evenodd" clip-rule="evenodd" d="M126.12 10.451C127.908 10.451 130.003 10.9386 131.893 12.1577C134.243 13.6206 135.623 15.6686 135.98 18.3506C136.338 20.8375 135.776 23.0807 134.141 25.0799C132.864 26.6404 131.178 27.6644 129.185 28.2008C126.427 28.9322 123.719 28.8835 121.011 27.8594C118.201 26.7379 116.26 24.7874 115.443 21.9591C114.216 17.4729 116.362 12.7916 121.522 11.0849C122.901 10.646 124.281 10.451 126.12 10.451ZM119.223 19.5697C119.223 21.9591 120.551 23.8609 122.901 24.6898C124.23 25.1775 125.609 25.2262 126.989 25.0312C128.061 24.8361 129.032 24.4948 129.901 23.8609C131.433 22.6906 132.149 21.1301 132.046 19.2771C131.944 17.034 130.769 15.4736 128.623 14.5959C126.784 13.8644 124.894 13.8644 123.055 14.4496C120.654 15.2298 119.223 17.1803 119.223 19.5697Z" fill="white"/>
<path fill-rule="evenodd" clip-rule="evenodd" d="M106.395 14.4988C105.271 14.4501 104.096 14.4013 102.921 14.4988C102.359 14.5476 101.797 14.5964 101.286 14.8402C100.52 15.1328 100.213 15.7667 100.469 16.4981C100.622 16.8882 100.928 17.1321 101.337 17.3271C101.95 17.5709 102.614 17.7172 103.279 17.8147C104.607 18.0098 105.935 18.1561 107.212 18.3999C108.285 18.595 109.358 18.8388 110.38 19.2776C110.635 19.3752 110.942 19.5215 111.197 19.6677C112.883 20.643 113.445 22.0571 113.241 23.8614C113.037 25.7631 111.913 27.0797 110.073 27.86C109.052 28.2988 108.03 28.5426 106.906 28.5914C104.403 28.7865 101.95 28.7377 99.4469 28.4939C98.8339 28.4451 98.2208 28.2988 97.6077 28.2013C96.4327 27.9087 96.0751 26.9335 96.2283 26.1045C96.3305 25.5681 96.6881 25.178 97.199 24.9342C97.6588 24.7391 98.1186 24.6903 98.5784 24.6903C100.06 24.7391 101.542 24.9342 103.023 25.0805C104.454 25.2755 105.884 25.2755 107.315 25.0317C107.621 24.9829 107.928 24.8854 108.234 24.7879C108.49 24.6904 108.745 24.5441 108.949 24.3978C109.614 23.8126 109.511 22.9349 108.745 22.4472C108.336 22.2034 107.928 22.1059 107.468 22.0084C106.548 21.8133 105.578 21.7158 104.607 21.6183C103.33 21.5207 102.052 21.3745 100.826 21.0331C100.213 20.8381 99.6002 20.643 98.9871 20.3504C97.4545 19.5702 96.6881 18.3024 96.5349 16.6932C96.4327 15.7179 96.586 14.7427 97.0458 13.8649C97.6077 12.7921 98.5273 12.1095 99.6513 11.6218C100.775 11.1342 102.001 10.9391 103.227 10.8904C105.169 10.8416 107.11 10.8416 109.001 10.9879C109.716 11.0367 110.482 11.0854 111.095 11.4268C112.27 12.0119 112.321 13.5236 111.197 14.2063C110.942 14.3526 110.738 14.4501 110.431 14.4988C110.176 14.5476 109.971 14.5964 109.716 14.5476C108.643 14.5476 107.519 14.4988 106.395 14.4988Z" fill="white"/>
<path fill-rule="evenodd" clip-rule="evenodd" d="M170.362 14.2064C169.34 14.2064 168.267 14.1577 167.245 14.2064C166.683 14.2552 166.07 14.3039 165.508 14.4502C165.355 14.499 165.253 14.5478 165.1 14.5965C164.589 14.7916 164.282 15.0842 164.231 15.6693C164.18 16.2545 164.384 16.6933 164.946 16.9859C165.304 17.181 165.662 17.2785 166.019 17.376C167.041 17.6198 168.114 17.7174 169.136 17.8637C170.719 18.0587 172.252 18.3513 173.734 18.9365C174.244 19.1315 174.704 19.3753 175.113 19.6191C176.135 20.3018 176.799 21.2283 176.952 22.3986C177.054 23.2764 177.003 24.1541 176.646 25.0319C176.441 25.5682 176.135 26.0071 175.675 26.446C174.704 27.3237 173.58 27.9576 172.252 28.2015C171.128 28.4453 170.004 28.5428 168.829 28.5428C167.552 28.5428 166.275 28.5428 164.997 28.494C163.771 28.4453 162.596 28.299 161.421 28.0552C160.246 27.8114 159.582 26.641 160.042 25.5682C160.144 25.2757 160.348 25.0319 160.655 24.8856C161.217 24.593 161.779 24.4467 162.443 24.593C164.742 25.0318 167.092 25.1781 169.442 25.0806C170.157 25.0318 170.873 24.9831 171.588 24.788C171.945 24.6905 172.252 24.5442 172.559 24.3492C173.376 23.7152 173.274 22.7887 172.354 22.3011C171.792 22.0085 171.179 21.8622 170.566 21.7647C169.442 21.5697 168.318 21.4721 167.143 21.3746C165.815 21.2283 164.538 20.9845 163.312 20.4481C162.443 20.1068 161.677 19.6191 161.115 18.8877C160.502 18.1075 160.246 17.181 160.246 16.2545C160.195 15.0354 160.451 13.9138 161.268 12.8898C161.983 12.0121 162.954 11.5244 164.027 11.1831C165.049 10.8418 166.172 10.7442 167.245 10.6955C169.187 10.6467 171.179 10.6955 173.121 10.8418C173.836 10.8905 174.5 11.0368 175.062 11.4269C176.033 12.0608 175.879 13.2799 175.368 13.7676C175.011 14.1577 174.5 14.3039 173.989 14.3527C173.58 14.4015 173.223 14.4015 172.814 14.3527C172.405 14.3527 171.945 14.3527 171.537 14.304C171.23 14.2552 170.822 14.2064 170.362 14.2064Z" fill="white"/>
<path fill-rule="evenodd" clip-rule="evenodd" d="M138.687 22.3006C138.687 20.8865 138.687 19.5211 138.687 18.107C138.738 16.4978 139.249 14.9861 140.321 13.7183C141.292 12.5967 142.467 11.8165 143.898 11.3776C146.759 10.4511 149.62 10.4024 152.429 11.3776C154.524 12.0603 156.159 13.3769 157.027 15.3275C157.436 16.2052 157.641 17.1317 157.641 18.107C157.641 20.8865 157.641 23.7147 157.641 26.4942C157.641 26.9819 157.538 27.4207 157.283 27.8108C156.874 28.4935 156.261 28.7861 155.444 28.7861C154.677 28.7861 154.064 28.396 153.707 27.7621C153.451 27.2744 153.4 26.7868 153.4 26.2992C153.4 23.861 153.4 21.4716 153.4 19.0335C153.4 18.4483 153.349 17.8631 153.247 17.3268C152.889 16.0101 152.072 15.0349 150.692 14.6448C149.007 14.1084 147.321 14.1084 145.635 14.6448C144.357 15.0349 143.54 15.8639 143.131 17.0829C142.876 17.7656 142.774 18.4971 142.774 19.2773C142.774 21.6179 142.774 24.0073 142.774 26.3479C142.774 26.7381 142.723 27.1769 142.62 27.567C142.263 28.6398 141.19 29.225 140.066 28.9324C139.504 28.7861 139.095 28.396 138.84 27.9084C138.636 27.5183 138.584 27.0794 138.584 26.6405C138.636 25.1776 138.636 23.7635 138.687 22.3006C138.636 22.3006 138.636 22.3006 138.687 22.3006Z" fill="white"/>
<path fill-rule="evenodd" clip-rule="evenodd" d="M82.5911 16.7412C82.5911 14.5469 82.5911 12.4013 82.5911 10.2069C82.5911 9.71932 82.6933 9.23169 82.9487 8.79282C83.3064 8.11014 83.9194 7.72003 84.6858 7.72003C85.5032 7.72003 86.1162 8.11014 86.4739 8.79282C86.6782 9.18293 86.7804 9.62179 86.7804 10.1094C86.7804 10.4508 86.7804 10.8409 86.7804 11.1822C86.7804 11.3773 86.8315 11.4748 87.0358 11.426C87.4446 11.426 87.8022 11.426 88.2109 11.426C89.2837 11.426 90.3055 11.426 91.3784 11.426C91.7871 11.426 92.2469 11.4748 92.6556 11.6698C93.3197 11.9137 93.6263 12.4013 93.6774 13.084C93.6774 13.7667 93.473 14.4006 92.7578 14.6932C92.298 14.8882 91.7871 14.9857 91.2762 14.9857C89.9479 14.9857 88.6196 14.9857 87.3424 14.9857C86.7293 14.9857 86.7804 14.8882 86.7804 15.5221C86.7804 17.9115 86.7804 20.2522 86.7804 22.6416C86.7804 22.8854 86.8315 23.178 86.8826 23.4218C87.0869 24.2507 87.5978 24.7384 88.4663 24.8847C88.875 24.9822 89.2837 24.9822 89.6414 24.9822C90.2033 24.9334 90.7142 24.8847 91.2762 24.8847C91.6849 24.8359 92.0936 24.8359 92.4512 24.9334C93.1154 25.0797 93.5241 25.4698 93.6774 26.1038C93.8306 26.7864 93.7285 27.4204 93.1154 27.8592C92.8089 28.0543 92.4512 28.2006 92.0936 28.2981C90.2033 28.8345 88.3131 28.8832 86.3717 28.3956C84.226 27.8105 82.7955 26.25 82.5911 24.1045C82.54 23.6168 82.54 23.0804 82.54 22.5928C82.54 21.6175 82.54 20.6423 82.54 19.667C82.54 18.6917 82.5911 17.7165 82.5911 16.7412Z" fill="white"/>
<path fill-rule="evenodd" clip-rule="evenodd" d="M68.9527 14.0115C70.2299 14.0115 71.5072 14.2065 72.6822 14.7429C74.317 15.4744 75.2366 16.6934 75.4921 18.4002C75.6453 19.4242 75.5942 20.3995 75.2877 21.326C74.7768 22.7888 73.755 23.8616 72.2735 24.4468C69.9745 25.3733 67.6244 25.4221 65.3765 24.3005C63.4862 23.374 62.5156 21.8623 62.4134 19.8143C62.3623 17.9613 63.0264 16.4009 64.5591 15.2793C65.4787 14.5966 66.5005 14.2553 67.6755 14.0602C68.0842 14.0115 68.4929 14.0115 68.9527 14.0115Z" fill="#08A0A0"/>
<path fill-rule="evenodd" clip-rule="evenodd" d="M119.223 19.5694C119.223 17.18 120.653 15.2295 123.054 14.4493C124.945 13.8154 126.784 13.8641 128.623 14.5956C130.769 15.4733 131.893 17.0825 132.046 19.2769C132.148 21.1299 131.484 22.6903 129.9 23.8606C129.032 24.4945 128.061 24.8359 126.988 25.0309C125.609 25.2747 124.229 25.1772 122.901 24.6896C120.551 23.8606 119.223 21.9588 119.223 19.5694Z" fill="#08A0A0"/>
</svg>
