<svg width="142" height="141" viewBox="0 0 142 141" fill="none" xmlns="http://www.w3.org/2000/svg">
<path d="M37.6993 27.4814C37.7807 27.5629 37.8621 27.6443 37.9459 27.7282C38.1882 27.9704 38.4309 28.212 38.6739 28.4534C38.9028 28.6808 39.1314 28.9086 39.36 29.1364C39.4797 29.2555 39.5995 29.3746 39.7194 29.4936C40.313 30.0828 40.8989 30.6699 41.4419 31.3067C41.799 31.7108 42.189 32.0836 42.5733 32.4614C43.4811 33.354 43.4811 33.354 43.8812 33.8223C44.3835 34.4068 44.9389 34.9403 45.4871 35.4812C46.1007 36.0865 46.7084 36.6893 47.2687 37.3452C47.6096 37.731 47.9808 38.0874 48.3479 38.448C48.7837 38.876 49.2148 39.3022 49.6128 39.7658C50.0478 40.2714 50.5217 40.7353 50.9969 41.2029C51.9608 42.1516 51.9608 42.1516 52.3677 42.6267C52.8344 43.1704 53.3477 43.6669 53.8577 44.1697C54.4342 44.7381 54.9996 45.3057 55.5263 45.9207C55.8867 46.3269 56.2785 46.7029 56.6656 47.0835C57.5733 47.976 57.5733 47.976 57.9735 48.4444C58.4758 49.0289 59.0311 49.5624 59.5794 50.1033C60.1919 50.7075 60.7983 51.3092 61.3577 51.9639C61.7165 52.3692 62.1074 52.7437 62.4932 53.123C63.0155 53.6366 63.5199 54.154 63.9973 54.7095C64.3602 55.1172 64.7531 55.4954 65.1421 55.8779C66.0498 56.7704 66.0498 56.7704 66.4567 57.2454C66.9248 57.7901 67.4389 58.2878 67.95 58.7917C68.5265 59.3601 69.0919 59.9277 69.6186 60.5427C69.979 60.949 70.3708 61.325 70.7579 61.7056C71.6655 62.598 71.6655 62.598 72.0757 63.0764C72.5266 63.6011 73.0202 64.0812 73.5127 64.5664C74.0712 65.1165 74.6162 65.6674 75.1265 66.2625C75.4878 66.6693 75.8799 67.046 76.2676 67.4272C77.1753 68.3197 77.1753 68.3197 77.5821 68.7948C78.0502 69.3394 78.5643 69.8372 79.0755 70.3411C79.652 70.9094 80.2174 71.477 80.7441 72.092C81.1045 72.4983 81.4962 72.8743 81.8833 73.2549C82.791 74.1473 82.791 74.1473 83.1979 74.6224C83.666 75.1671 84.1801 75.6648 84.6912 76.1687C85.2656 76.7349 85.8285 77.3004 86.3532 77.9131C86.7496 78.3581 87.1806 78.7704 87.605 79.1885C88.1624 79.7375 88.7062 80.2873 89.2155 80.8813C89.5947 81.3074 90.0065 81.7023 90.4129 82.1023C91.3768 83.051 91.3768 83.051 91.787 83.5294C92.2366 84.0531 92.7293 84.532 93.2207 85.0161C93.7792 85.5662 94.3242 86.1171 94.8345 86.7123C95.1958 87.119 95.5879 87.4957 95.9756 87.877C96.8832 88.7693 96.8832 88.7693 97.2968 89.2511C97.7305 89.7557 98.2035 90.2183 98.6775 90.6848C99.6415 91.6335 99.6415 91.6335 100.052 92.1119C100.501 92.6357 100.994 93.1145 101.485 93.5986C102.043 94.1477 102.587 94.6975 103.096 95.2915C103.475 95.7176 103.887 96.1125 104.293 96.5125C104.833 97.0432 105.356 97.5763 105.849 98.1504C106.229 98.577 106.641 98.9727 107.048 99.3733C107.587 99.9041 108.111 100.437 108.604 101.011C108.984 101.438 109.396 101.834 109.803 102.234C110.767 103.183 110.767 103.183 111.171 103.655C111.654 104.218 112.188 104.733 112.717 105.254C113.311 105.84 113.898 106.425 114.44 107.06C114.8 107.465 115.191 107.841 115.578 108.221C116.102 108.736 116.609 109.256 117.088 109.813C117.414 110.181 117.764 110.525 118.114 110.87C118.223 110.978 118.223 110.978 118.334 111.088C118.51 111.263 118.686 111.437 118.862 111.611C118.715 111.942 118.545 112.167 118.289 112.421C118.217 112.493 118.145 112.565 118.071 112.639C117.995 112.713 117.92 112.787 117.843 112.863C117.77 112.936 117.697 113.008 117.622 113.083C117.271 113.431 116.917 113.768 116.542 114.089C116.017 114.543 115.535 115.038 115.048 115.532C114.043 116.552 114.043 116.552 113.572 116.954C112.945 117.492 112.376 118.094 111.799 118.685C111.647 118.84 111.494 118.995 111.341 119.149C111.252 119.24 111.162 119.332 111.07 119.426C110.82 119.655 110.576 119.82 110.28 119.982C110.065 119.77 109.851 119.558 109.637 119.346C109.548 119.258 109.548 119.258 109.457 119.169C109.145 118.858 108.845 118.542 108.558 118.207C108.068 117.639 107.529 117.118 106.995 116.591C106.404 116.009 105.821 115.426 105.282 114.795C104.868 114.331 104.418 113.902 103.975 113.466C103.401 112.899 102.838 112.334 102.313 111.721C101.917 111.276 101.486 110.864 101.062 110.446C100.502 109.895 99.9556 109.343 99.4444 108.747C99.1025 108.36 98.7332 108.001 98.3663 107.638C98.25 107.522 98.25 107.522 98.1314 107.405C97.9428 107.217 97.754 107.03 97.565 106.843C97.0018 107.315 96.4827 107.814 95.9694 108.339C95.743 108.567 95.5068 108.777 95.2633 108.986C94.7322 109.446 94.2433 109.946 93.7505 110.446C92.7454 111.466 92.7454 111.466 92.2738 111.87C91.7111 112.352 91.1977 112.885 90.6778 113.413C90.0941 114.005 89.5108 114.589 88.8786 115.129C88.434 115.525 88.0225 115.956 87.605 116.379C87.0502 116.943 86.4946 117.493 85.8942 118.007C85.5718 118.292 85.2756 118.601 84.976 118.909C84.4573 119.435 83.9282 119.926 83.3462 120.382C83.0619 120.607 82.7834 120.838 82.505 121.071C80.1244 123.02 77.388 124.473 74.5346 125.593C74.3516 125.665 74.1694 125.739 73.9879 125.815C73.334 126.088 72.6766 126.281 71.9896 126.452C71.828 126.493 71.828 126.493 71.6632 126.535C71.453 126.588 71.2426 126.641 71.0323 126.694C70.8146 126.749 70.5974 126.806 70.3804 126.863C66.8771 127.788 62.8962 127.953 59.3145 127.399C59.1633 127.378 59.0121 127.357 58.8609 127.336C51.0712 126.206 43.7552 121.814 39.0259 115.536C38.2806 114.536 37.5805 113.524 36.963 112.441C36.8522 112.248 36.7377 112.058 36.6223 111.868C35.9073 110.672 35.3807 109.398 34.8583 108.108C34.7549 107.852 34.6495 107.598 34.5433 107.344C33.6524 105.118 33.2165 102.751 32.9312 100.38C32.922 100.311 32.9129 100.242 32.9035 100.17C32.824 99.5313 32.8082 98.9005 32.8074 98.257C32.8071 98.1471 32.8067 98.0373 32.8064 97.9241C32.8058 97.6925 32.8056 97.4609 32.8056 97.2292C32.8054 96.8803 32.8034 96.5313 32.8014 96.1824C32.7981 94.9478 32.8444 93.7591 33.0371 92.5391C33.059 92.3707 33.0804 92.2022 33.1013 92.0337C33.8275 86.7986 36.1547 81.6782 39.5005 77.5991C39.5863 77.4944 39.6721 77.3896 39.7606 77.2817C40.5882 76.287 41.4876 75.3709 42.4058 74.4601C42.6544 74.2134 42.9022 73.9659 43.1498 73.7182C43.3102 73.5584 43.4707 73.3985 43.6312 73.2387C43.7039 73.1661 43.7767 73.0935 43.8517 73.0186C44.2682 72.6061 44.6963 72.2135 45.1399 71.8303C45.369 71.6298 45.585 71.4191 45.7983 71.202C45.8778 71.1217 45.9573 71.0413 46.0392 70.9586C46.1193 70.8772 46.1993 70.7958 46.2818 70.7119C46.7974 70.1875 47.317 69.6806 47.8749 69.2012C48.2436 68.8742 48.5857 68.5207 48.9307 68.1689C49.4757 67.6133 50.0331 67.0842 50.626 66.5796C51.1389 67.0006 51.5973 67.4465 52.0432 67.9372C52.8951 68.8615 53.7856 69.7456 54.6794 70.6291C55.188 71.1329 55.6835 71.6397 56.1483 72.1847C56.4049 72.4711 56.6762 72.7416 56.9495 73.0119C57.0294 73.091 57.0294 73.091 57.1109 73.1716C57.3323 73.39 57.554 73.608 57.7763 73.8256C57.9404 73.9866 58.1039 74.1482 58.2673 74.3099C58.3642 74.4049 58.461 74.5 58.5607 74.5979C58.7847 74.8442 58.7847 74.8442 58.8907 75.1621C58.5897 75.4658 58.2883 75.7691 57.9866 76.072C57.8843 76.1748 57.7822 76.2776 57.6802 76.3806C57.1437 76.9218 56.6041 77.4492 56.0253 77.9449C55.6197 78.3048 55.2443 78.696 54.8643 79.0825C54.3497 79.6059 53.8312 80.1115 53.2745 80.5899C52.8863 80.9348 52.5261 81.3081 52.1624 81.6785C51.657 82.193 51.1461 82.69 50.5996 83.1608C48.7757 84.7343 47.3721 86.8592 46.3877 89.0425C46.3341 89.1606 46.3341 89.1606 46.2793 89.2811C44.2007 93.9344 44.2957 99.2213 46.0688 103.944C46.9115 106.071 48.1427 107.946 49.713 109.606C49.8843 109.81 49.8843 109.81 49.8843 110.022C49.9892 110.057 50.0941 110.092 50.2022 110.128C50.3832 110.3 50.5593 110.477 50.732 110.658C52.5055 112.425 54.8247 113.785 57.1953 114.578C57.261 114.6 57.3266 114.623 57.3942 114.645C58.9881 115.181 60.5778 115.545 62.2647 115.553C62.363 115.554 62.4613 115.554 62.5625 115.555C62.7698 115.556 62.9771 115.557 63.1844 115.557C63.496 115.558 63.8074 115.562 64.119 115.565C68.2541 115.588 72.524 113.924 75.6319 111.188C75.7671 111.07 75.7671 111.07 75.905 110.95C76.4199 110.494 76.9124 110.021 77.3909 109.528C77.5962 109.328 77.8041 109.143 78.0217 108.957C78.6148 108.442 79.16 107.879 79.7112 107.32C80.8808 106.135 80.8808 106.135 81.3469 105.737C81.9669 105.208 82.5292 104.615 83.1018 104.035C84.3902 102.731 84.3902 102.731 85.0556 102.164C85.5568 101.717 86.021 101.229 86.4925 100.751C87.7356 99.4907 87.7356 99.4907 88.385 98.9403C88.6331 98.7263 88.8604 98.4959 89.0884 98.2607C88.9528 97.9658 88.8091 97.7401 88.5872 97.5037C88.5291 97.4415 88.471 97.3793 88.4111 97.3152C88.3483 97.2492 88.2856 97.1831 88.2209 97.1151C88.1557 97.0458 88.0906 96.9766 88.0234 96.9052C87.4801 96.3311 86.9235 95.7705 86.3589 95.2172C86.0475 94.9104 85.7495 94.5996 85.4656 94.2671C84.9408 93.659 84.3618 93.1029 83.7906 92.5391C82.5303 91.295 82.5303 91.295 81.9574 90.6236C81.5995 90.2187 81.2089 89.845 80.8238 89.4663C79.9161 88.5739 79.9161 88.5739 79.5059 88.0955C79.055 87.5708 78.5615 87.0907 78.0689 86.6055C77.0486 85.6004 77.0486 85.6004 76.6418 85.1254C76.1763 84.5826 75.664 84.0874 75.1551 83.5857C74.5807 83.0195 74.0178 82.454 73.4931 81.8413C73.0967 81.3963 72.6657 80.984 72.2412 80.5659C71.6839 80.0169 71.1401 79.4671 70.6308 78.8731C70.2516 78.447 69.8398 78.0521 69.4334 77.6521C68.4695 76.7034 68.4695 76.7034 68.0593 76.225C67.6097 75.7013 67.117 75.2224 66.6255 74.7383C65.6052 73.7332 65.6052 73.7332 65.2017 73.2615C64.7193 72.6988 64.1861 72.1855 63.6587 71.6655C63.0678 71.0829 62.485 70.5006 61.9452 69.8696C61.5316 69.4057 61.0814 68.976 60.639 68.5398C60.0624 67.9714 59.497 67.4038 58.9703 66.7888C58.6099 66.3826 58.2182 66.0066 57.8311 65.626C56.9233 64.7334 56.9233 64.7334 56.5232 64.2651C56.0208 63.6806 55.4655 63.1471 54.9173 62.6062C54.307 62.0041 53.7029 61.4045 53.1456 60.7522C52.7509 60.308 52.3206 59.8973 51.8975 59.4805C50.8772 58.4754 50.8772 58.4754 50.4704 58.0004C50.005 57.4576 49.4926 56.9624 48.9837 56.4607C48.4093 55.8945 47.8464 55.329 47.3217 54.7163C46.9253 54.2713 46.4943 53.859 46.0699 53.4409C45.5136 52.8929 44.971 52.3442 44.4627 51.7514C44.0655 51.3059 43.6341 50.8928 43.209 50.4741C42.1887 49.4691 42.1887 49.4691 41.7819 48.994C41.3165 48.4512 40.8041 47.956 40.2952 47.4543C39.1423 46.3177 39.1423 46.3177 38.6365 45.7129C38.4568 45.4951 38.4568 45.4951 38.2626 45.3692C37.899 45.0862 37.722 44.8678 37.6316 44.409C37.6078 43.9653 37.6074 43.5269 37.6151 43.0828C37.6153 42.9126 37.6151 42.7423 37.6147 42.572C37.6145 42.1112 37.6189 41.6505 37.624 41.1897C37.6287 40.7077 37.6291 40.2256 37.63 39.7435C37.6323 38.8312 37.6384 37.9191 37.6458 37.0068C37.6541 35.968 37.6582 34.9292 37.6619 33.8904C37.6697 31.754 37.6827 29.6177 37.6993 27.4814Z" fill="#025172"/>
<path d="M63.1646 8.28362C63.45 8.28339 63.7355 8.28146 64.0209 8.27945C65.1877 8.27558 66.3188 8.34392 67.473 8.51516C67.6399 8.53992 67.6399 8.53992 67.8101 8.56517C72.6528 9.34455 77.4216 11.5441 80.9846 14.9401C81.2032 15.1483 81.4257 15.3424 81.658 15.5348C82.8871 16.6084 83.9175 17.884 84.85 19.2168C84.9222 19.3195 84.9222 19.3195 84.9959 19.4242C88.0091 23.7587 89.5927 28.9041 89.5584 34.17C89.5582 34.2729 89.5579 34.3758 89.5577 34.4818C89.5511 36.2092 89.4275 37.8635 89.0883 39.5606C89.073 39.6437 89.0577 39.7269 89.042 39.8125C88.4079 43.2388 86.8183 46.6396 84.797 49.4609C84.7469 49.5309 84.6968 49.6008 84.6452 49.6729C83.6704 50.9929 82.5475 52.1734 81.3841 53.3261C81.1661 53.5421 80.9491 53.7589 80.7321 53.9759C80.5911 54.1165 80.4499 54.257 80.3087 54.3975C80.2452 54.4608 80.1818 54.5242 80.1163 54.5895C79.7215 54.98 79.313 55.3494 78.8931 55.7128C78.6803 55.8991 78.4786 56.0932 78.2806 56.2952C78.2107 56.3659 78.1408 56.4367 78.0687 56.5096C77.9988 56.5809 77.9289 56.6522 77.8568 56.7256C77.37 57.2219 76.877 57.6998 76.3482 58.1515C76.1723 58.3055 76.0069 58.4656 75.8436 58.6328C75.5146 58.4879 75.3053 58.3268 75.0634 58.0621C74.9964 57.9896 74.9294 57.9171 74.8604 57.8425C74.7893 57.7646 74.7182 57.6867 74.645 57.6064C74.0048 56.9143 73.3531 56.2382 72.6795 55.5786C72.3677 55.2713 72.0697 54.9592 71.7846 54.6268C71.3283 54.0982 70.831 53.6128 70.3339 53.1231C69.7665 52.5642 69.2118 52.0044 68.6935 51.3995C68.4039 51.069 68.0809 50.7733 67.7615 50.4721C67.579 50.2622 67.579 50.2622 67.579 49.9444C67.7085 49.8069 67.7085 49.8069 67.9035 49.653C68.4424 49.2034 68.9284 48.7068 69.4192 48.2061C69.7483 47.8726 70.0814 47.5516 70.4365 47.2458C70.884 46.8599 71.2977 46.4456 71.7113 46.024C72.1971 45.5286 72.6892 45.0512 73.2161 44.5994C74.9406 43.108 76.1554 41.0597 76.9032 38.9248C76.9632 38.7574 76.9632 38.7574 77.0245 38.5867C78.228 34.985 77.8125 31.1131 76.1517 27.7399C74.3807 24.3016 71.3333 21.9138 67.681 20.7366C64.0938 19.6384 60.3095 20.0901 56.9833 21.7598C55.5803 22.5185 54.3408 23.5008 53.2425 24.6521C53.0181 24.8772 52.7925 25.0842 52.5521 25.2911C52.0997 25.6825 51.6803 26.101 51.2616 26.5279C50.8487 26.9488 50.4361 27.3621 49.9885 27.7464C49.6945 27.9993 49.4194 28.2614 49.1507 28.541C49.0837 28.6108 49.0166 28.6806 48.9475 28.7525C48.8101 28.8967 48.6736 29.0416 48.5378 29.1871C48.4712 29.2558 48.4047 29.3245 48.3362 29.3953C48.2772 29.4577 48.2183 29.5202 48.1575 29.5845C47.9769 29.7066 47.9769 29.7066 47.7696 29.6979C47.495 29.5745 47.3321 29.4173 47.1206 29.2029C47.0392 29.121 46.9579 29.0391 46.8741 28.9547C46.79 28.8685 46.706 28.7822 46.6194 28.6934C46.5365 28.61 46.4537 28.5266 46.3683 28.4407C45.9926 28.06 45.6257 27.6757 45.2771 27.27C44.8433 26.7668 44.3708 26.3049 43.8976 25.8391C43.3587 25.3088 42.8354 24.7762 42.3429 24.2025C41.9576 23.7694 41.5413 23.3661 41.1295 22.9584C41.0412 22.8707 40.953 22.7829 40.8621 22.6925C40.7334 22.5646 40.7334 22.5646 40.6022 22.434C40.5213 22.3531 40.4404 22.2722 40.357 22.1888C40.2248 22.0589 40.0905 21.9309 39.9524 21.8071C39.611 21.4985 39.611 21.4985 39.5894 21.2354C39.7749 20.9074 40.0324 20.661 40.3017 20.4022C40.3547 20.3497 40.4078 20.2972 40.4625 20.2431C40.7639 19.9478 41.0742 19.6664 41.3939 19.3911C41.8629 18.9842 42.2972 18.547 42.7321 18.1043C43.233 17.5943 43.7396 17.1038 44.2816 16.6375C44.5861 16.3685 44.8665 16.078 45.1492 15.7865C45.7404 15.1874 46.3603 14.6502 47.0233 14.1309C47.134 14.0402 47.2445 13.9492 47.3548 13.8581C51.0412 10.8432 55.5728 9.05519 60.2679 8.40921C60.382 8.3927 60.382 8.3927 60.4983 8.37586C61.3823 8.2669 62.2754 8.28354 63.1646 8.28362Z" fill="#3095B4"/>
<path d="M96.5054 40.938C97.5448 41.1527 98.5331 41.4066 99.5384 41.7459C99.6072 41.769 99.676 41.7921 99.7469 41.8159C100.963 42.2261 102.137 42.6967 103.287 43.269C103.371 43.3105 103.455 43.352 103.542 43.3948C105.952 44.593 108.259 46.1051 110.204 47.973C110.442 48.2014 110.684 48.4192 110.935 48.6331C111.737 49.3302 112.453 50.0881 113.114 50.9191C113.268 51.1104 113.426 51.2986 113.588 51.4828C117.145 55.5383 119.22 60.7937 120.134 66.0498C120.151 66.1489 120.169 66.2481 120.187 66.3502C120.711 69.4052 120.575 72.6359 120.134 75.6919C120.12 75.7909 120.105 75.89 120.091 75.992C119.635 79.0166 118.616 82.1162 117.169 84.8124C117.055 85.0282 116.944 85.2458 116.833 85.4639C116.063 86.9729 115.131 88.3404 114.094 89.6782C114.026 89.7671 113.958 89.8561 113.887 89.9477C113.405 90.5638 112.887 91.1395 112.355 91.7117C112.136 91.95 111.925 92.1916 111.717 92.4397C111.218 93.0176 110.636 93.5149 110.068 94.0225C109.415 93.4864 108.82 92.8968 108.224 92.2988C108.055 92.1292 107.886 91.9602 107.716 91.7912C107.606 91.681 107.496 91.5707 107.386 91.4605C107.288 91.3624 107.19 91.2644 107.089 91.1633C106.863 90.9317 106.65 90.6915 106.439 90.4459C105.989 89.9278 105.505 89.4465 105.019 88.963C104.923 88.8678 104.828 88.7726 104.73 88.6744C104.479 88.4241 104.228 88.174 103.977 87.9241C103.719 87.6678 103.462 87.4112 103.205 87.1547C102.703 86.6535 102.2 86.1525 101.697 85.6519C101.89 85.2313 102.135 85.004 102.485 84.6982C106.053 81.4974 108.151 76.8994 108.507 72.1339C108.733 67.0601 107.131 62.2232 103.77 58.401C103.61 58.2299 103.449 58.06 103.287 57.8911C103.239 57.8397 103.19 57.7883 103.141 57.7354C101.382 55.8601 99.3027 54.4505 96.9292 53.4703C96.6113 53.335 96.6113 53.335 96.5054 53.229C96.4952 53.0695 96.4925 52.9095 96.4926 52.7496C96.4925 52.6461 96.4923 52.5425 96.4922 52.4358C96.4926 52.3213 96.4929 52.2067 96.4933 52.0887C96.4933 51.9688 96.4933 51.8489 96.4933 51.7254C96.4934 51.3269 96.4942 50.9285 96.495 50.53C96.4952 50.2546 96.4954 49.9792 96.4955 49.7037C96.4958 49.0516 96.4967 48.3994 96.4977 47.7472C96.4989 47.0048 96.4995 46.2625 96.5 45.5202C96.5011 43.9928 96.503 42.4654 96.5054 40.938Z" fill="#3095B4"/>
</svg>
