<svg width="128" height="127" viewBox="0 0 128 127" fill="none" xmlns="http://www.w3.org/2000/svg">
<path d="M44.3676 44.6304C44.7444 44.8232 44.7444 44.8232 45.1287 45.02C50.1053 47.7782 53.9844 52.5096 57.8614 56.7635C58.3735 57.3221 58.8859 57.8805 59.3984 58.4386C60.638 59.7893 61.8749 61.1427 63.1103 62.4977C64.2692 61.929 65.0918 61.3445 65.9723 60.3533C66.1997 60.1001 66.4271 59.8468 66.6615 59.5859C66.9038 59.3121 67.1462 59.0384 67.396 58.7563C67.9244 58.1712 68.453 57.5863 68.9818 57.0016C69.8055 56.0861 70.6274 55.169 71.4457 54.2478C77.7769 47.1374 85.0319 41.2579 94.567 41.0544C104.749 41.0819 112.423 45.7181 119.473 53.3617C120.223 54.1803 120.972 55.0009 121.72 55.8217C122.236 56.3843 122.752 56.9467 123.268 57.5089C124.521 58.874 125.771 60.2418 127.02 61.6113C126.359 63.3927 125.2 64.5945 123.965 65.9243C123.734 66.1761 123.504 66.4279 123.266 66.6874C122.492 67.5313 121.716 68.3719 120.939 69.2126C120.383 69.8168 119.828 70.4212 119.273 71.0257C117.764 72.668 116.253 74.3073 114.74 75.9459C113.795 76.97 112.85 77.9947 111.906 79.0196C108.61 82.5962 105.312 86.1702 102.012 89.7421C98.9375 93.0697 95.8686 96.4031 92.8022 99.7392C90.1682 102.604 87.5302 105.465 84.8892 108.322C83.3125 110.029 81.7374 111.737 80.1663 113.449C78.6876 115.06 77.204 116.666 75.7166 118.268C75.1727 118.856 74.6305 119.446 74.0902 120.037C68.4448 126.214 68.4448 126.214 64.3378 127C63.9919 126.995 63.646 126.991 63.2896 126.986C62.9426 126.991 62.5957 126.995 62.2382 127C59.3685 126.426 57.249 124.675 55.2524 122.465C55.0196 122.215 54.7868 121.965 54.5469 121.707C53.7747 120.874 53.0085 120.036 52.2422 119.197C51.6871 118.596 51.1316 117.995 50.5757 117.395C49.0723 115.769 47.574 114.137 46.0765 112.505C44.5076 110.796 42.9339 109.093 41.3608 107.389C38.3833 104.162 35.4099 100.931 32.4381 97.6976C29.0587 94.0218 25.6747 90.351 22.2903 86.6806C15.8131 79.6558 9.34044 72.626 2.87213 65.5916C1.92258 64.559 0.972696 63.5269 0.0200195 62.4977C0.69665 60.6409 1.95281 59.369 3.22703 57.9772C3.5868 57.582 3.5868 57.582 3.95384 57.1788C4.46378 56.6206 4.97489 56.0637 5.48705 55.508C6.25295 54.6742 7.01085 53.8325 7.76868 52.9901C11.9714 48.3816 16.3842 44.6333 22.1426 42.5528C22.5735 42.3791 23.0045 42.2054 23.4484 42.0265C30.4888 39.8261 37.8954 41.267 44.3676 44.6304Z" fill="#8CC63F"/>
<path d="M113.084 47.1321C116.26 49.6652 118.957 52.791 121.72 55.8217C122.236 56.3843 122.752 56.9467 123.268 57.5089C124.521 58.874 125.771 60.2418 127.02 61.6113C126.471 62.9325 125.867 63.8555 124.92 64.8761C124.657 65.162 124.394 65.4479 124.123 65.7424C123.691 66.2053 123.691 66.2053 123.25 66.6776C122.946 67.0064 122.642 67.3352 122.329 67.6739C121.324 68.76 120.317 69.8429 119.31 70.9258C118.613 71.6783 117.916 72.431 117.219 73.1838C115.385 75.1648 113.548 77.1431 111.711 79.1208C109.837 81.1394 107.965 83.1606 106.093 85.1815C102.419 89.1464 98.7431 93.1086 95.0652 97.0688C93.0282 95.2214 91.1129 93.2981 89.2394 91.2596C88.8192 90.8051 88.8192 90.8051 88.3905 90.3414C87.4741 89.3497 86.5592 88.3563 85.6442 87.363C85.0054 86.6711 84.3666 85.9793 83.7276 85.2876C82.0531 83.4743 80.3798 81.6597 78.7068 79.8447C76.9966 77.99 75.2852 76.1365 73.5739 74.2828C70.2215 70.6512 66.8703 67.0181 63.52 63.3841C63.9042 62.8956 64.2889 62.4075 64.6738 61.9196C64.888 61.6477 65.1022 61.3759 65.3229 61.0958C66.9865 59.0286 68.7927 57.101 70.5744 55.1538C71.0571 54.6243 71.5376 54.0924 72.0158 53.558C83.428 40.81 98.8735 36.8076 113.084 47.1321Z" fill="#38B44A"/>
<path d="M73.4355 3.85247C76.4255 6.82183 78.3284 10.3618 78.518 14.785C78.5502 19.6545 77.5319 23.6815 74.6037 27.4816C73.1389 29.0272 71.4762 30.0286 69.6652 31.0291C69.2343 31.3033 68.8033 31.5776 68.3593 31.8601C64.4833 33.0975 60.5112 32.7745 56.8772 30.8802C52.8317 28.2652 50.3754 24.8407 48.9269 19.9815C48.0189 14.6042 48.9153 10.7284 51.6394 6.2088C53.7486 3.04751 57.1989 0.948674 60.7051 0.157818C65.4092 -0.458426 69.648 0.721193 73.4355 3.85247Z" fill="#8CC63F"/>
</svg>
